<svg xmlns="http://www.w3.org/2000/svg" xmlns:xlink="http://www.w3.org/1999/xlink" width="150px" height="41px" aria-hidden="true">
  <defs><linearGradient class="cerosgradient" data-cerosgradient="true" id="CerosGradient_id6537398f7" gradientUnits="userSpaceOnUse" x1="50%" y1="100%" x2="50%" y2="0%"><stop offset="0%" stop-color="#d1d1d1"/><stop offset="100%" stop-color="#d1d1d1"/></linearGradient><linearGradient/>
    <path id="a63d028311dd66" d="M.028.346h21.743V32.16H.028z"/>
  </defs>
  <g fill="none" fill-rule="evenodd">
    <g transform="translate(0 .932)">
      <mask id="b63d028311dd66" fill="#fff">
        <use xlink:href="#a63d028311dd66"/>
      </mask>
      <path d="M20.505 8.2l-1.223.591C17.212 5.46 13.998 1.75 9.77 1.75c-3.17 0-5.623 2.445-5.623 5.608 0 3.668 3.89 5.144 6.85 6.03 5.326 1.644 10.774 3.078 10.774 9.783 0 5.396-4.222 8.991-9.464 8.991-2.663 0-4.945-1.232-6.638-1.232-.93 0-1.945.596-2.581 1.232L0 23.927l1.268-.59c2.582 3.416 6.388 7.423 10.785 7.423 3.256 0 6.259-2.194 6.259-5.694 0-9.782-17.297-4.807-17.297-16.107C1.015 3.647 4.739.346 9.98.346c1.353 0 2.114.254 3.383.721.973.299 1.353.51 2.283.51.718 0 1.565-.211 2.072-.807l2.786 7.43" fill="#fff" mask="url(#b63d028311dd66)"/>
    </g>
    <path d="M21.683 13.378V12.36c3.127-1.314 5.028-4.567 5.409-7.777h1.403v7.394h5.915v1.401h-5.915v12.8c0 1.901-.213 4.69 2.408 4.69 1.648 0 2.662-1.057 3.718-2.114l.718.845c-1.606 1.815-3.718 3.5-6.294 3.5-3.725 0-4.276-3.034-4.276-6.034V13.378h-3.086" fill="#fff"/>
    <path d="M52.811 21.032c0-4.978-3.637-9.51-8.904-9.51-5.9 0-9.665 5.59-9.665 10.986 0 5.776 4.315 10.588 10.212 10.588 3.454 0 6.412-2.07 8.188-4.98l-.72-.674c-1.648 2.277-4.099 3.838-6.92 3.838-5.266 0-6.487-6.114-6.487-10.248H52.81zm-14.11-1.593c.084-2.878 1.562-6.515 5.151-6.515 3.674 0 4.943 3.596 4.689 6.515H38.7z" fill="#fff"/>
    <path d="M58.654 30.519c1.395 1.436 3.34 2.577 5.412 2.577 6.043 0 8.657-6.081 8.616-11.317.041-4.602-2.742-10.26-8.025-10.26-2.368 0-4.228 1.183-6.003 2.704v-2.976l-6.514 2.455v1.002c2.535 0 2.704.804 2.79 3.043V34.23c0 3.973 0 4.225-2.873 4.606v1.226h9.428v-1.226c-2.831-.38-2.831-.633-2.831-4.606v-3.711zm0-14.65c.93-1.099 2.96-2.533 4.44-2.533 4.481 0 5.581 4.982 5.581 8.57 0 3.59-.888 9.374-5.497 9.374-1.775 0-3.298-1.31-4.524-2.449V15.87z" fill="#fff"/>
    <path d="M78.976 26.85c0 3.974 0 4.227 2.87 4.566v1.224H72.42v-1.224c2.831-.34 2.831-.592 2.831-4.566V7.585c0-3.677-.592-3.508-3.591-3.72V2.64L78.976.275v14.53c1.899-1.732 4.893-3.289 7.466-3.289 4.44 0 5.328 3.204 5.328 7.6v7.734c0 3.974 0 4.227 2.832 4.566v1.224h-9.383v-1.224c2.826-.34 2.826-.592 2.826-4.566v-7.734c0-2.96-.59-5.369-3.417-5.369-2.193 0-4.134 1.48-5.652 2.833v10.27M112.216 21.032c0-4.978-3.637-9.51-8.905-9.51-5.899 0-9.662 5.59-9.662 10.986 0 5.776 4.313 10.588 10.21 10.588 3.454 0 6.412-2.07 8.189-4.98l-.72-.674c-1.65 2.277-4.099 3.838-6.921 3.838-5.266 0-6.487-6.114-6.487-10.248h14.296zm-14.11-1.593c.084-2.878 1.564-6.515 5.153-6.515 3.671 0 4.94 3.596 4.687 6.515h-9.84z" fill="#fff"/>
    <path d="M118.377 26.846c0 3.978 0 4.23 2.83 4.57v1.224h-9.428v-1.224c2.873-.34 2.873-.592 2.873-4.57V17.75c-.126-2.242-.169-3.046-2.745-3.046v-1.002l6.47-2.455v3.558c1.609-1.732 4.278-3.289 6.65-3.289 1.482 0 2.964.59 4.023 1.643 1.396 1.56 1.438 3.505 1.438 5.492v8.2c0 3.973 0 4.226 2.832 4.565v1.224h-9.48v-1.224c2.923-.34 2.923-.592 2.923-4.566v-7.397c0-2.536-.168-5.706-3.515-5.706-1.864 0-3.602 1.523-4.87 2.79v10.309M148.842 18.112l-1.013.548c-2.07-2.658-4.6-5.736-8.017-5.736-1.646 0-3.332 1.139-3.332 2.869 0 5.144 13.248 3.205 13.248 10.922 0 3.626-3.503 6.378-6.879 6.378-1.054 0-1.813-.297-2.784-.594-.506-.171-1.012-.383-1.561-.383-.885 0-1.73.383-2.446.977l-2.61-7.179.928-.464c1.599 2.656 5.563 6.241 8.727 6.241 1.94 0 3.712-1.476 3.712-3.458 0-5.44-13.112-3.079-13.112-10.712 0-3.584 3.282-6 6.615-6 1.519 0 2.994.68 4.174.71.801 0 1.394-.383 1.901-.984l2.45 6.865" fill="#fff"/>
  </g>
</svg>